<svg width="34" height="48" viewBox="0 0 34 48" fill="none" xmlns="http://www.w3.org/2000/svg">
<path d="M15.1316 25.3216C19.713 25.1857 24.2612 26.1295 28.3994 28.0754C34.0534 30.9187 35.0635 35.7268 31.0228 40.5796C28.0276 44.3058 23.7216 46.7822 18.9611 47.5165C17.7834 47.7752 16.5595 47.7464 15.3957 47.4325C14.2318 47.1187 13.163 46.5293 12.282 45.7154C8.37704 41.9938 4.50221 38.1533 0.883727 34.2531C-0.62398 32.586 -0.186745 30.8739 2.07482 29.2514C5.71859 26.9077 9.94106 25.59 14.2872 25.4407L15.1316 25.3216Z" fill="url(#paint0_linear_367_7593)"/>
<path d="M15.1315 22.3443C19.713 22.4802 24.2612 21.5362 28.3994 19.5904C34.0534 16.7769 35.0635 11.9241 31.0228 7.10102C28.026 3.37934 23.7197 0.908084 18.9611 0.179034C17.7847 -0.0828974 16.5612 -0.057078 15.3971 0.254245C14.2331 0.565569 13.1637 1.15297 12.282 1.96536C8.37704 5.73152 4.50221 9.55722 0.883727 13.502C-0.62398 15.1692 -0.186745 16.896 2.07482 18.5037C5.71581 20.8573 9.9383 22.1852 14.2872 22.3443H15.1315Z" fill="url(#paint1_linear_367_7593)"/>
<defs>
<linearGradient id="paint0_linear_367_7593" x1="16.7369" y1="-3.82382e-05" x2="16.7369" y2="47.6915" gradientUnits="userSpaceOnUse">
<stop stop-color="#00BDFF"/>
<stop offset="1" stop-color="#0043FF"/>
</linearGradient>
<linearGradient id="paint1_linear_367_7593" x1="16.7369" y1="1.49991e-08" x2="16.7369" y2="47.6915" gradientUnits="userSpaceOnUse">
<stop stop-color="#00BDFF"/>
<stop offset="1" stop-color="#0043FF"/>
</linearGradient>
</defs>
</svg>
