<svg width="34" height="34" viewBox="0 0 34 34" fill="none" xmlns="http://www.w3.org/2000/svg">
<path d="M24.082 4.25001H29.7487C30.1244 4.25001 30.4848 4.39926 30.7504 4.66494C31.0161 4.93061 31.1654 5.29095 31.1654 5.66667V28.3333C31.1654 28.7091 31.0161 29.0694 30.7504 29.3351C30.4848 29.6008 30.1244 29.75 29.7487 29.75H4.2487C3.87297 29.75 3.51264 29.6008 3.24696 29.3351C2.98129 29.0694 2.83203 28.7091 2.83203 28.3333V5.66667C2.83203 5.29095 2.98129 4.93061 3.24696 4.66494C3.51264 4.39926 3.87297 4.25001 4.2487 4.25001H9.91536V1.41667H12.7487V4.25001H21.2487V1.41667H24.082V4.25001ZM28.332 12.75V7.08334H24.082V9.91667H21.2487V7.08334H12.7487V9.91667H9.91536V7.08334H5.66536V12.75H28.332ZM28.332 15.5833H5.66536V26.9167H28.332V15.5833ZM8.4987 18.4167H15.582V24.0833H8.4987V18.4167Z" fill="#FF9900"/>
</svg>
