<svg width="199" height="199" viewBox="0 0 199 199" fill="none" xmlns="http://www.w3.org/2000/svg">
<path d="M193.677 101.104L193.448 103.924C193.347 105.169 193.085 106.09 192.662 106.686C192.238 107.283 191.579 107.545 190.684 107.472C190.298 107.441 189.957 107.338 189.66 107.163C189.368 106.993 189.133 106.759 188.956 106.461C188.779 106.163 188.669 105.804 188.625 105.385L188.557 105.379C188.453 105.81 188.297 106.186 188.088 106.507C187.879 106.828 187.603 107.071 187.261 107.235C186.918 107.4 186.495 107.461 185.991 107.42C185.377 107.371 184.871 107.186 184.472 106.865C184.072 106.549 183.785 106.123 183.609 105.588C183.437 105.053 183.38 104.431 183.438 103.722L183.716 100.295L193.677 101.104ZM189.311 101.915L189.156 103.823C189.086 104.691 189.18 105.302 189.439 105.657C189.698 106.016 190.103 106.218 190.652 106.263C191.22 106.309 191.645 106.142 191.927 105.763C192.209 105.388 192.385 104.766 192.456 103.899L192.595 102.182L189.311 101.915ZM188.337 101.836L184.61 101.534L184.442 103.605C184.37 104.491 184.491 105.131 184.807 105.527C185.127 105.924 185.582 106.146 186.172 106.194C186.549 106.224 186.879 106.167 187.16 106.02C187.442 105.878 187.668 105.627 187.839 105.266C188.014 104.91 188.127 104.423 188.177 103.805L188.337 101.836Z" fill="white"/>
<path d="M182.016 115.445L182.26 114.33L192.652 116.601L192.408 117.716L182.016 115.445Z" fill="white"/>
<path d="M181.897 129.784C181.318 129.577 180.828 129.317 180.427 129.003C180.026 128.69 179.719 128.336 179.508 127.941C179.296 127.546 179.179 127.116 179.156 126.653C179.136 126.196 179.216 125.714 179.398 125.208C179.567 124.736 179.803 124.331 180.108 123.995C180.415 123.665 180.777 123.412 181.193 123.236C181.607 123.065 182.07 122.982 182.582 122.986C183.092 122.995 183.637 123.103 184.216 123.31C184.988 123.587 185.598 123.953 186.045 124.408C186.496 124.865 186.776 125.386 186.886 125.973C186.998 126.565 186.933 127.198 186.692 127.871C186.462 128.515 186.117 129.025 185.657 129.403C185.196 129.785 184.645 130.011 184.005 130.082C183.368 130.159 182.665 130.059 181.897 129.784ZM183.82 124.417C183.253 124.214 182.735 124.113 182.265 124.114C181.795 124.115 181.39 124.232 181.051 124.464C180.711 124.695 180.453 125.058 180.276 125.551C180.101 126.04 180.071 126.482 180.186 126.877C180.3 127.276 180.538 127.625 180.901 127.924C181.263 128.223 181.727 128.474 182.294 128.677C182.856 128.879 183.367 128.977 183.829 128.973C184.294 128.97 184.695 128.852 185.03 128.619C185.365 128.386 185.622 128.02 185.8 127.523C186.063 126.789 186.014 126.164 185.652 125.647C185.288 125.134 184.678 124.724 183.82 124.417Z" fill="white"/>
<path d="M174.36 137.381C174.677 136.786 175.079 136.326 175.566 136.002C176.054 135.678 176.616 135.524 177.254 135.538C177.892 135.552 178.593 135.763 179.357 136.17C180.158 136.596 180.741 137.077 181.106 137.612C181.474 138.154 181.655 138.725 181.649 139.327C181.644 139.928 181.482 140.528 181.163 141.128C180.987 141.457 180.784 141.757 180.552 142.026C180.323 142.302 180.106 142.511 179.9 142.655L179.222 141.906C179.41 141.748 179.606 141.553 179.812 141.322C180.016 141.095 180.179 140.867 180.301 140.638C180.545 140.179 180.65 139.744 180.616 139.334C180.579 138.927 180.41 138.546 180.11 138.189C179.807 137.837 179.376 137.512 178.817 137.214C178.282 136.929 177.787 136.758 177.331 136.702C176.874 136.649 176.468 136.714 176.112 136.897C175.759 137.086 175.465 137.399 175.232 137.838C175.045 138.188 174.914 138.523 174.836 138.843C174.762 139.165 174.715 139.468 174.693 139.75L173.8 139.275C173.806 138.994 173.851 138.7 173.936 138.395C174.019 138.093 174.161 137.755 174.36 137.381Z" fill="white"/>
<path d="M178.438 151.87L173.972 148.621C173.824 148.513 173.648 148.376 173.442 148.21C173.24 148.046 173.06 147.901 172.904 147.776L172.875 147.815C172.915 147.962 172.975 148.178 173.056 148.462C173.134 148.749 173.192 148.987 173.232 149.173L173.913 152.745L173.129 153.823L172.315 149.503L166.941 149.593L167.745 148.487L172.171 148.435L172.031 147.209L169.837 145.613L170.5 144.701L179.102 150.958L178.438 151.87Z" fill="white"/>
<path d="M160.914 156.636C161.384 156.153 161.898 155.823 162.456 155.647C163.014 155.471 163.598 155.479 164.206 155.67C164.815 155.861 165.43 156.258 166.051 156.861C166.702 157.493 167.128 158.117 167.33 158.733C167.533 159.355 167.548 159.955 167.376 160.531C167.204 161.107 166.881 161.639 166.408 162.126C166.148 162.394 165.869 162.625 165.572 162.819C165.275 163.02 165.008 163.161 164.771 163.242L164.327 162.335C164.552 162.235 164.795 162.102 165.056 161.937C165.315 161.776 165.535 161.602 165.716 161.415C166.078 161.043 166.3 160.654 166.381 160.25C166.459 159.85 166.403 159.436 166.213 159.01C166.02 158.588 165.696 158.156 165.242 157.714C164.807 157.292 164.379 156.991 163.957 156.81C163.532 156.632 163.124 156.582 162.732 156.658C162.34 156.741 161.971 156.961 161.625 157.317C161.348 157.602 161.129 157.887 160.965 158.173C160.805 158.462 160.675 158.74 160.576 159.005L159.85 158.3C159.933 158.032 160.058 157.762 160.225 157.492C160.389 157.226 160.619 156.94 160.914 156.636Z" fill="white"/>
<path d="M160.876 171.675L158.932 169.161C158.82 169.016 158.711 168.867 158.604 168.714C158.5 168.564 158.409 168.421 158.332 168.285L158.273 168.331C158.312 168.634 158.292 168.929 158.213 169.215C158.134 169.507 158.001 169.782 157.815 170.041C157.632 170.303 157.405 170.539 157.135 170.748C156.659 171.116 156.204 171.347 155.769 171.441C155.332 171.537 154.911 171.488 154.507 171.294C154.099 171.102 153.7 170.754 153.31 170.249L150.325 166.387L151.212 165.702L154.151 169.504C154.533 169.998 154.932 170.279 155.349 170.349C155.762 170.421 156.201 170.278 156.666 169.918C157.106 169.578 157.392 169.222 157.524 168.849C157.656 168.482 157.654 168.092 157.518 167.678C157.379 167.268 157.128 166.828 156.766 166.359L154.37 163.26L155.268 162.566L161.774 170.981L160.876 171.675Z" fill="white"/>
<path d="M145.942 178.541C145.158 178.97 144.48 179.112 143.908 178.968C143.336 178.824 142.838 178.366 142.416 177.594L139.973 173.126L140.699 172.729L141.422 173.595L141.47 173.569C141.523 173.229 141.604 172.922 141.715 172.649C141.827 172.379 141.992 172.13 142.21 171.902C142.426 171.68 142.724 171.465 143.104 171.258C143.504 171.039 143.898 170.914 144.287 170.884C144.671 170.855 145.031 170.934 145.366 171.119C145.697 171.307 145.982 171.619 146.22 172.055C146.579 172.71 146.595 173.356 146.267 173.992C145.94 174.628 145.253 175.253 144.207 175.867L143.1 176.535L143.319 176.937C143.63 177.504 143.969 177.836 144.338 177.93C144.706 178.025 145.113 177.951 145.556 177.708C145.9 177.52 146.201 177.291 146.458 177.02C146.715 176.75 146.947 176.47 147.152 176.181L147.871 176.769C147.658 177.083 147.39 177.399 147.065 177.717C146.74 178.035 146.366 178.309 145.942 178.541ZM142.728 175.826L143.706 175.237C144.509 174.757 145.013 174.307 145.22 173.887C145.427 173.468 145.412 173.042 145.176 172.61C144.971 172.234 144.705 172.019 144.378 171.963C144.052 171.908 143.701 171.983 143.325 172.189C142.741 172.508 142.352 172.931 142.157 173.458C141.963 173.985 142.042 174.573 142.397 175.221L142.728 175.826Z" fill="white"/>
<path d="M134.603 184.043L131.892 177.059L132.95 176.648L135.661 183.633L134.603 184.043ZM136.133 186.456C135.959 186.523 135.788 186.524 135.62 186.457C135.45 186.396 135.319 186.246 135.226 186.008C135.136 185.775 135.132 185.576 135.215 185.412C135.293 185.249 135.42 185.134 135.594 185.066C135.777 184.996 135.952 184.994 136.12 185.06C136.283 185.129 136.41 185.28 136.501 185.514C136.593 185.752 136.601 185.949 136.525 186.106C136.446 186.268 136.316 186.385 136.133 186.456Z" fill="white"/>
<path d="M123.602 187.951C122.739 188.164 122.034 188.113 121.487 187.797C120.941 187.486 120.552 186.864 120.322 185.93L119.153 181.191L120.242 180.923L121.393 185.589C121.542 186.195 121.793 186.614 122.146 186.846C122.495 187.079 122.955 187.125 123.525 186.985C124.331 186.786 124.841 186.418 125.056 185.882C125.271 185.345 125.271 184.644 125.057 183.776L124.118 179.967L125.219 179.695L127.014 186.969L126.124 187.188L125.7 186.181L125.64 186.195C125.549 186.49 125.405 186.753 125.208 186.985C125.013 187.221 124.778 187.42 124.503 187.581C124.23 187.747 123.929 187.871 123.602 187.951Z" fill="white"/>
<path d="M104.758 183.344L105.917 183.259L106.262 187.956L111.498 187.572L111.153 182.875L112.312 182.789L113.044 192.757L111.885 192.842L111.573 188.594L106.337 188.979L106.649 193.226L105.49 193.311L104.758 183.344Z" fill="white"/>
<path d="M90.1931 190.526L90.9143 183.068L91.8396 183.158L91.9016 184.221L91.9628 184.227C92.1421 183.984 92.3627 183.785 92.6248 183.632C92.8868 183.479 93.1763 183.374 93.493 183.318C93.8057 183.256 94.1345 183.242 94.4792 183.276C95.0689 183.333 95.5541 183.476 95.9349 183.705C96.3156 183.934 96.5888 184.258 96.7543 184.677C96.9153 185.095 96.9655 185.618 96.905 186.243L96.4326 191.129L95.2895 191.018L95.754 186.215C95.8141 185.593 95.7184 185.115 95.467 184.779C95.2152 184.448 94.8012 184.254 94.2251 184.199C93.6717 184.145 93.2216 184.207 92.8748 184.384C92.5235 184.561 92.2558 184.844 92.0716 185.234C91.8869 185.628 91.7661 186.12 91.7091 186.709L91.3294 190.635L90.1931 190.526Z" fill="white"/>
<path d="M80.2269 192.289L80.8931 189.715C80.9696 189.42 81.0527 189.135 81.1423 188.862C81.2274 188.587 81.2944 188.374 81.3432 188.222L81.2836 188.206C81.0006 188.481 80.6425 188.683 80.2092 188.811C79.776 188.939 79.2682 188.927 78.6858 188.777C77.7769 188.541 77.135 188.039 76.76 187.269C76.3795 186.502 76.3497 185.498 76.6705 184.258C76.8818 183.442 77.1834 182.786 77.5755 182.29C77.9676 181.793 78.4258 181.46 78.95 181.29C79.4742 181.119 80.043 181.114 80.6562 181.272C81.2298 181.421 81.6745 181.649 81.9903 181.956C82.3005 182.267 82.5149 182.603 82.6335 182.963L82.7196 182.985L83.1964 182.071L83.9905 182.276L81.3254 192.574L80.2269 192.289ZM79.1025 187.903C79.6276 188.039 80.0713 188.043 80.4338 187.916C80.7952 187.793 81.0979 187.542 81.342 187.162C81.5806 186.786 81.7815 186.283 81.9448 185.652L81.9602 185.592C82.1965 184.679 82.2253 183.94 82.0465 183.376C81.8665 182.816 81.3751 182.433 80.5721 182.225C79.8971 182.05 79.328 182.167 78.8648 182.574C78.3972 182.98 78.0446 183.642 77.8071 184.56C77.565 185.495 77.5506 186.242 77.7637 186.801C77.9724 187.359 78.4187 187.726 79.1025 187.903Z" fill="white"/>
<path d="M57.8982 172.493L57.4063 175.86L60.8922 177.833L63.5198 175.676L64.5429 176.255L56.1962 183.061L55.286 182.546L56.8513 171.901L57.8982 172.493ZM57.2011 176.93L56.6657 180.248C56.6491 180.333 56.6225 180.472 56.586 180.666C56.5455 180.858 56.5036 181.057 56.4604 181.263C56.4171 181.469 56.383 181.635 56.3581 181.763C56.4898 181.623 56.6254 181.485 56.7651 181.349C56.8985 181.215 57.0264 181.091 57.1486 180.977C57.2685 180.867 57.3713 180.773 57.4569 180.696L60.0446 178.54L57.2011 176.93Z" fill="white"/>
<path d="M44.5885 171.58L46.0608 172.727L50.1185 167.517L51.0138 168.214L46.956 173.424L48.0023 174.239L47.6663 174.67L46.389 174.152L46.0823 174.546C45.6959 175.042 45.3085 175.387 44.9203 175.581C44.5292 175.779 44.1361 175.843 43.7408 175.772C43.3456 175.701 42.9466 175.509 42.5439 175.195C42.3174 175.018 42.1261 174.838 41.9699 174.652C41.8102 174.465 41.678 174.289 41.5734 174.127L42.3556 173.601C42.447 173.736 42.5574 173.88 42.6868 174.032C42.8098 174.186 42.9504 174.324 43.1086 174.448C43.4502 174.714 43.7905 174.8 44.1295 174.706C44.4621 174.612 44.8118 174.33 45.1787 173.859L45.5147 173.428L44.0424 172.281L44.5885 171.58Z" fill="white"/>
<path d="M35.3994 164.989C35.2935 164.882 35.1892 164.764 35.0865 164.635C34.9806 164.509 34.8924 164.391 34.8219 164.281L35.6702 163.641C35.7342 163.751 35.8128 163.866 35.9058 163.985C35.9988 164.105 36.0919 164.212 36.185 164.305C36.3969 164.519 36.6412 164.678 36.918 164.782C37.1883 164.886 37.4749 164.929 37.7779 164.911C38.0777 164.896 38.3809 164.816 38.6875 164.672C38.991 164.531 39.2801 164.325 39.555 164.052L42.4076 161.22L43.2119 162.03L37.8949 167.309L37.2303 166.639L38.1235 165.579L38.0898 165.545C37.7834 165.631 37.4722 165.676 37.1564 165.682C36.8373 165.69 36.5282 165.641 36.2288 165.533C35.9263 165.423 35.6499 165.241 35.3994 164.989Z" fill="white"/>
<path d="M28.7684 157.576L34.6624 152.95L35.363 153.843L29.469 158.468L28.7684 157.576ZM26.9054 159.741C26.79 159.594 26.74 159.431 26.7552 159.251C26.764 159.07 26.8688 158.901 27.0695 158.744C27.2667 158.589 27.4559 158.527 27.6371 158.559C27.8155 158.587 27.9624 158.674 28.0777 158.821C28.1987 158.976 28.2516 159.143 28.2364 159.323C28.2184 159.499 28.1108 159.664 27.9136 159.819C27.7128 159.977 27.5264 160.042 27.3544 160.015C27.1761 159.987 27.0264 159.896 26.9054 159.741Z" fill="white"/>
<path d="M28.7762 144.624C29.1278 145.2 29.3192 145.78 29.3503 146.364C29.3815 146.948 29.2288 147.512 28.8923 148.054C28.5558 148.595 28.0181 149.092 27.2791 149.543C26.5052 150.016 25.7948 150.274 25.148 150.316C24.4949 150.358 23.9107 150.223 23.3956 149.913C22.8804 149.603 22.4459 149.158 22.0919 148.578C21.8971 148.259 21.7425 147.932 21.6281 147.596C21.5074 147.259 21.4375 146.965 21.4184 146.715L22.4074 146.511C22.4484 146.753 22.5162 147.022 22.6107 147.316C22.7029 147.607 22.8167 147.863 22.9521 148.085C23.2229 148.528 23.5438 148.84 23.9149 149.019C24.2837 149.194 24.6979 149.243 25.1577 149.165C25.615 149.083 26.114 148.877 26.6546 148.547C27.1719 148.231 27.5706 147.892 27.8506 147.528C28.1283 147.161 28.2789 146.778 28.3023 146.379C28.3195 145.979 28.1986 145.567 27.9397 145.143C27.733 144.805 27.5116 144.521 27.2753 144.291C27.0351 144.064 26.7987 143.869 26.5661 143.707L27.4295 143.18C27.669 143.327 27.8987 143.515 28.1186 143.744C28.3361 143.969 28.5553 144.262 28.7762 144.624Z" fill="white"/>
<path d="M16.3579 138.143C16.0069 137.321 15.9307 136.633 16.1293 136.077C16.328 135.521 16.8317 135.071 17.6405 134.725L22.3235 132.724L22.6486 133.484L21.7162 134.121L21.7377 134.171C22.0715 134.256 22.3691 134.367 22.6305 134.503C22.8876 134.641 23.1193 134.829 23.3255 135.068C23.5258 135.305 23.7109 135.622 23.8811 136.02C24.0602 136.439 24.1462 136.844 24.1393 137.233C24.1305 137.619 24.0176 137.969 23.8007 138.285C23.582 138.596 23.2442 138.85 22.7874 139.045C22.1002 139.339 21.4557 139.292 20.8541 138.905C20.2525 138.518 19.6968 137.774 19.1869 136.673L18.6288 135.507L18.2077 135.687C17.6126 135.941 17.2503 136.247 17.1206 136.605C16.991 136.963 17.0256 137.374 17.2244 137.839C17.3784 138.2 17.5777 138.521 17.8221 138.803C18.0666 139.085 18.3228 139.342 18.5906 139.575L17.9356 140.234C17.6438 139.992 17.3554 139.694 17.0703 139.34C16.7852 138.986 16.5478 138.587 16.3579 138.143ZM19.3697 135.205L19.8623 136.236C20.263 137.081 20.6622 137.626 21.0598 137.873C21.4575 138.119 21.8827 138.146 22.3353 137.952C22.7292 137.784 22.9694 137.54 23.0559 137.22C23.1424 136.901 23.1014 136.544 22.9331 136.15C22.6716 135.539 22.2879 135.11 21.7819 134.866C21.2759 134.621 20.6834 134.644 20.0045 134.934L19.3697 135.205Z" fill="white"/>
<path d="M16.6031 117.476C16.2885 117.528 16.0532 117.489 15.8973 117.358C15.7369 117.228 15.6383 117.052 15.6016 116.832C15.5633 116.603 15.5984 116.398 15.707 116.219C15.811 116.039 16.0204 115.924 16.3351 115.871C16.6452 115.819 16.8853 115.86 17.0555 115.993C17.2211 116.127 17.3231 116.309 17.3613 116.538C17.3981 116.758 17.3596 116.957 17.2458 117.133C17.1275 117.31 16.9133 117.424 16.6031 117.476Z" fill="white"/>
<path d="M5.30933 98.6642L5.51657 95.8418C5.60801 94.5964 5.86311 93.6738 6.28186 93.074C6.7006 92.4741 7.35767 92.2071 8.25304 92.2728C8.63937 92.3012 8.98156 92.4017 9.27961 92.5744C9.57345 92.7422 9.81002 92.9743 9.98931 93.2708C10.1686 93.5673 10.2817 93.9251 10.3286 94.3444L10.3968 94.3494C10.497 93.9181 10.6503 93.541 10.8568 93.218C11.0633 92.895 11.3372 92.6501 11.6785 92.4832C12.0197 92.3163 12.4426 92.2514 12.9471 92.2885C13.5607 92.3335 14.0683 92.5147 14.47 92.8321C14.872 93.1449 15.163 93.5684 15.3432 94.1026C15.5187 94.6364 15.5805 95.2578 15.5284 95.9669L15.2766 99.3961L5.30933 98.6642ZM9.66906 97.8191L9.80922 95.9102C9.87296 95.0421 9.77384 94.4316 9.51187 94.0788C9.25022 93.7215 8.84443 93.5226 8.29447 93.4822C7.72634 93.4405 7.3026 93.6104 7.02326 93.9921C6.74425 94.3691 6.57287 94.9917 6.50913 95.8598L6.38298 97.5778L9.66906 97.8191ZM10.644 97.8907L14.3732 98.1645L14.5254 96.092C14.5904 95.2057 14.4638 94.5658 14.1454 94.1723C13.8225 93.7784 13.3656 93.5598 12.7747 93.5164C12.3975 93.4887 12.0686 93.5491 11.7881 93.6976C11.5079 93.8415 11.2837 94.0947 11.1154 94.457C10.943 94.8145 10.834 95.3023 10.7886 95.9204L10.644 97.8907Z" fill="white"/>
<path d="M16.8437 84.2785L16.6084 85.3956L6.19999 83.2036L6.43526 82.0865L16.8437 84.2785Z" fill="white"/>
<path d="M16.9595 69.6058C17.5395 69.8111 18.0306 70.0695 18.4327 70.3811C18.8349 70.6926 19.1426 71.0457 19.3559 71.4402C19.5691 71.8348 19.6881 72.2636 19.7127 72.7268C19.7345 73.1841 19.6557 73.6662 19.4763 74.1732C19.309 74.6457 19.0738 75.0507 18.7707 75.3882C18.4648 75.7199 18.1041 75.9741 17.6886 76.1509C17.2746 76.3235 16.8118 76.4086 16.3001 76.4064C15.79 76.3999 15.2449 76.294 14.665 76.0887C13.8917 75.815 13.2807 75.4513 12.8322 74.9977C12.3793 74.5425 12.097 74.022 11.9853 73.4362C11.8708 72.8445 11.9329 72.2115 12.1717 71.537C12.3998 70.8926 12.7429 70.3807 13.201 70.0014C13.6607 69.6178 14.2105 69.3894 14.8503 69.3162C15.4875 69.2371 16.1905 69.3337 16.9595 69.6058ZM15.0573 74.9803C15.6244 75.181 16.1429 75.2799 16.6128 75.2771C17.0828 75.2742 17.4871 75.1563 17.8258 74.9232C18.1645 74.6902 18.4213 74.3267 18.5961 73.8326C18.7695 73.3429 18.7978 72.9009 18.6811 72.5067C18.5659 72.1082 18.3266 71.76 17.9631 71.4621C17.5996 71.1643 17.1343 70.915 16.5672 70.7143C16.0044 70.5151 15.4923 70.4184 15.031 70.4243C14.5653 70.4287 14.1653 70.5482 13.8309 70.7827C13.4965 71.0173 13.2411 71.3837 13.0647 71.8821C12.8047 72.6167 12.8566 73.2418 13.2204 73.7573C13.5858 74.2685 14.198 74.6762 15.0573 74.9803Z" fill="white"/>
<path d="M24.4171 62.051C24.1023 62.6475 23.7018 63.1086 23.2155 63.4342C22.7293 63.7599 22.1673 63.9168 21.5295 63.9048C20.8917 63.8928 20.1899 63.6847 19.4241 63.2806C18.6221 62.8573 18.0373 62.3786 17.6699 61.8446C17.3005 61.3044 17.1174 60.7337 17.1204 60.1324C17.1234 59.531 17.2834 58.9301 17.6003 58.3296C17.7748 57.9991 17.9771 57.6988 18.2072 57.4286C18.4355 57.1523 18.6522 56.942 18.8571 56.7977L19.5379 57.5435C19.351 57.7025 19.1551 57.8979 18.9502 58.1299C18.7474 58.3579 18.5854 58.5867 18.4642 58.8164C18.2217 59.2759 18.1184 59.7109 18.1542 60.1214C18.1921 60.5279 18.3621 60.9088 18.6642 61.2641C18.9684 61.6153 19.4006 61.9387 19.9608 62.2344C20.4969 62.5173 20.9926 62.6862 21.448 62.741C21.9056 62.7918 22.3117 62.7253 22.6664 62.5415C23.0192 62.3515 23.3115 62.0369 23.5433 61.5976C23.7284 61.2469 23.8591 60.9114 23.9355 60.591C24.0078 60.2684 24.0542 59.9657 24.0747 59.6828L24.9694 60.155C24.9653 60.4362 24.9211 60.7298 24.8369 61.0358C24.7549 61.3378 24.6149 61.6761 24.4171 62.051Z" fill="white"/>
<path d="M20.2383 47.5998L24.7168 50.8326C24.8646 50.9393 25.0417 51.0756 25.248 51.2414C25.4506 51.4045 25.6306 51.5484 25.7878 51.6732L25.8158 51.6344C25.7758 51.4874 25.7148 51.272 25.6331 50.9882C25.554 50.7006 25.4945 50.4638 25.4547 50.2777L24.7604 46.7077L25.5406 45.6269L26.3702 49.9437L31.7435 49.8346L30.9433 50.9432L26.5182 51.0117L26.6623 52.237L28.8628 53.8254L28.2026 54.7399L19.5781 48.5144L20.2383 47.5998Z" fill="white"/>
<path d="M37.5912 42.8945C37.1248 43.3817 36.6131 43.7152 36.0562 43.8949C35.4993 44.0747 34.9158 44.0713 34.3057 43.8848C33.6957 43.6982 33.0779 43.3056 32.4525 42.7068C31.7974 42.0796 31.3664 41.4589 31.1596 40.8445C30.9527 40.2237 30.9332 39.6246 31.1011 39.0472C31.269 38.4698 31.5877 37.9359 32.0573 37.4454C32.3157 37.1754 32.5927 36.9421 32.8882 36.7455C33.1835 36.5425 33.4495 36.3997 33.6862 36.3172L34.1363 37.2211C33.9129 37.3227 33.6708 37.4569 33.4101 37.6238C33.1526 37.7873 32.934 37.9629 32.7544 38.1506C32.3951 38.5259 32.1764 38.9158 32.0982 39.3204C32.0231 39.7217 32.0821 40.1346 32.2751 40.5591C32.4712 40.9803 32.7981 41.4099 33.2557 41.848C33.6935 42.2671 34.1239 42.5656 34.5468 42.7433C34.9728 42.9177 35.3816 42.9652 35.7731 42.8858C36.1645 42.7999 36.5319 42.5775 36.8754 42.2187C37.1496 41.9323 37.3673 41.6455 37.5287 41.3584C37.6868 41.0681 37.8144 40.7897 37.9118 40.5232L38.6426 41.2229C38.5614 41.4922 38.4384 41.7624 38.2735 42.0335C38.1117 42.3014 37.8843 42.5883 37.5912 42.8945Z" fill="white"/>
<path d="M37.6721 27.6952L39.6253 30.203C39.7373 30.3468 39.8472 30.4952 39.9548 30.6482C40.0596 30.7976 40.1506 30.9405 40.2279 31.0767L40.2872 31.0305C40.247 30.7268 40.2658 30.432 40.3435 30.1461C40.4221 29.8539 40.5538 29.578 40.7387 29.3185C40.9208 29.0553 41.1466 28.8188 41.4163 28.6087C41.8909 28.2391 42.3452 28.0066 42.7792 27.9111C43.2168 27.8129 43.6379 27.8604 44.0425 28.0535C44.4508 28.2439 44.8509 28.5908 45.243 29.0941L48.2422 32.9448L47.3577 33.6337L44.4047 29.8424C44.021 29.3498 43.6208 29.0695 43.2038 29.0014C42.7905 28.9306 42.3519 29.0757 41.8881 29.437C41.4495 29.7786 41.1647 30.1362 41.0339 30.5096C40.9038 30.8766 40.9073 31.2667 41.0443 31.6799C41.1849 32.0903 41.4372 32.5292 41.8012 32.9966L44.2081 36.0868L43.3129 36.7841L36.7768 28.3925L37.6721 27.6952Z" fill="white"/>
<path d="M52.1927 20.961C52.9732 20.5267 53.6501 20.3795 54.2234 20.5194C54.7967 20.6593 55.2972 21.1136 55.7249 21.8821L58.2013 26.3323L57.4785 26.7345L56.7488 25.8732L56.7011 25.8998C56.6508 26.2407 56.5716 26.5481 56.4633 26.8222C56.3529 27.0923 56.1895 27.3423 55.9732 27.5722C55.7586 27.7958 55.4622 28.0129 55.0839 28.2234C54.6857 28.445 54.2925 28.5726 53.9043 28.606C53.5201 28.6373 53.1597 28.5614 52.8232 28.3784C52.4907 28.1931 52.2036 27.8835 51.9621 27.4494C51.5987 26.7963 51.5783 26.1505 51.901 25.512C52.2237 24.8735 52.9058 24.2436 53.9474 23.6223L55.0497 22.9463L54.827 22.5461C54.5124 21.9806 54.1704 21.6519 53.8012 21.5601C53.432 21.4683 53.0263 21.5454 52.5843 21.7913C52.2418 21.9819 51.943 22.2134 51.6878 22.4858C51.4325 22.7582 51.2032 23.0397 50.9998 23.3302L50.2764 22.747C50.4868 22.4317 50.7533 22.114 51.0758 21.7937C51.3982 21.4735 51.7705 21.1959 52.1927 20.961ZM55.4267 23.6518L54.4524 24.2487C53.6538 24.7349 53.1526 25.1885 52.9488 25.6096C52.745 26.0307 52.7628 26.4562 53.0021 26.8863C53.2104 27.2607 53.4779 27.4743 53.8046 27.5272C54.1313 27.5801 54.4819 27.5024 54.8562 27.2941C55.4376 26.9705 55.8237 26.5444 56.0146 26.0158C56.2055 25.4871 56.1214 24.9003 55.7624 24.2551L55.4267 23.6518Z" fill="white"/>
<path d="M63.6079 15.284L66.371 22.2481L65.3162 22.6666L62.5531 15.7025L63.6079 15.284ZM62.0596 12.883C62.2333 12.8141 62.4042 12.8125 62.5725 12.8781C62.7433 12.9378 62.8757 13.0863 62.9698 13.3235C63.0623 13.5565 63.0676 13.7554 62.9859 13.9202C62.9085 14.0833 62.7829 14.1993 62.6092 14.2682C62.4271 14.3405 62.2519 14.3438 62.0836 14.2782C61.9197 14.2109 61.7914 14.0607 61.699 13.8277C61.6049 13.5905 61.5953 13.3933 61.6702 13.2361C61.7477 13.073 61.8775 12.9553 62.0596 12.883Z" fill="white"/>
<path d="M74.3604 11.3262C75.2215 11.1068 75.9269 11.1528 76.4766 11.4642C77.0251 11.7713 77.418 12.3907 77.6554 13.3225L78.8604 18.0523L77.774 18.3291L76.5876 13.6722C76.4335 13.0672 76.179 12.6499 75.8243 12.4205C75.474 12.19 75.014 12.1472 74.4443 12.2924C73.6405 12.4971 73.1332 12.8686 72.9223 13.4067C72.7114 13.9448 72.7162 14.6467 72.9367 15.5123L73.9054 19.3147L72.8057 19.5948L70.9561 12.3345L71.8438 12.1084L72.276 13.1128L72.3356 13.0976C72.4249 12.8021 72.5669 12.5379 72.7615 12.3049C72.955 12.0675 73.1884 11.8669 73.4618 11.7032C73.7341 11.5351 74.0336 11.4094 74.3604 11.3262Z" fill="white"/>
<path d="M93.3071 15.7213L92.1488 15.8153L91.7678 11.1208L86.535 11.5455L86.916 16.2401L85.7577 16.3341L84.9491 6.37271L86.1074 6.27868L86.452 10.5235L91.6848 10.0987L91.3402 5.85391L92.4985 5.75988L93.3071 15.7213Z" fill="white"/>
<path d="M107.891 8.38721L107.227 15.8499L106.301 15.7676L106.231 14.7045L106.17 14.699C105.992 14.944 105.773 15.1442 105.512 15.2994C105.252 15.4546 104.963 15.5616 104.647 15.6204C104.334 15.6842 104.006 15.7007 103.661 15.67C103.071 15.6175 102.584 15.4782 102.202 15.252C101.819 15.0259 101.544 14.7039 101.375 14.2863C101.211 13.8691 101.156 13.3473 101.212 12.7208L101.647 7.83192L102.791 7.93365L102.363 12.7408C102.308 13.3627 102.407 13.8405 102.661 14.1743C102.916 14.5034 103.331 14.6936 103.908 14.7449C104.462 14.7942 104.911 14.7289 105.257 14.5492C105.606 14.3698 105.872 14.0846 106.053 13.6935C106.235 13.2979 106.352 12.805 106.404 12.2149L106.754 8.28608L107.891 8.38721Z" fill="white"/>
<path d="M117.881 6.52074L117.234 9.10008C117.16 9.39626 117.079 9.68137 116.992 9.95543C116.908 10.2306 116.843 10.4444 116.795 10.5969L116.855 10.6119C117.136 10.3346 117.493 10.1304 117.925 9.99916C118.357 9.86792 118.865 9.87545 119.449 10.0217C120.359 10.25 121.005 10.7479 121.386 11.5152C121.772 12.2792 121.81 13.2823 121.498 14.5245C121.293 15.3423 120.996 16.0008 120.608 16.5002C120.22 16.9995 119.764 17.3363 119.241 17.5106C118.718 17.6849 118.15 17.695 117.535 17.541C116.961 17.3969 116.514 17.1722 116.196 16.8669C115.883 16.5583 115.666 16.2244 115.545 15.8651L115.459 15.8435L114.989 16.7617L114.193 16.5622L116.78 6.24477L117.881 6.52074ZM119.039 10.8985C118.512 10.7666 118.069 10.7658 117.707 10.896C117.347 11.0217 117.046 11.2752 116.805 11.6564C116.569 12.0342 116.372 12.5392 116.213 13.1713L116.199 13.231C115.969 14.1461 115.946 14.8849 116.129 15.4477C116.313 16.006 116.808 16.386 117.612 16.5877C118.288 16.7572 118.857 16.6366 119.317 16.2257C119.781 15.816 120.129 15.1514 120.359 14.2319C120.594 13.2948 120.603 12.5476 120.386 11.9904C120.173 11.4343 119.724 11.0703 119.039 10.8985Z" fill="white"/>
<path d="M140.641 26.2465L141.12 22.8783L137.627 20.9176L135.007 23.0846L133.982 22.5091L142.304 15.6721L143.216 16.184L141.69 26.8354L140.641 26.2465ZM141.321 21.8075L141.844 18.4873C141.861 18.4024 141.887 18.2628 141.923 18.0687C141.962 17.8767 142.004 17.6777 142.046 17.4716C142.089 17.2656 142.122 17.0988 142.147 16.9715C142.015 17.1121 141.88 17.2505 141.741 17.3867C141.608 17.5211 141.481 17.6456 141.359 17.7601C141.239 17.8707 141.137 17.9648 141.052 18.0423L138.472 20.2082L141.321 21.8075Z" fill="white"/>
<path d="M153.694 26.8756L152.213 25.7396L148.193 30.9787L147.293 30.288L151.313 25.0488L150.26 24.2416L150.593 23.8077L151.874 24.3166L152.178 23.9207C152.561 23.4218 152.946 23.0737 153.333 22.8765C153.722 22.6756 154.115 22.6093 154.511 22.6774C154.906 22.7455 155.307 22.935 155.712 23.2457C155.939 23.4204 156.132 23.5998 156.29 23.7838C156.451 23.9706 156.584 24.1448 156.69 24.3064L155.912 24.838C155.819 24.7039 155.708 24.5609 155.577 24.4091C155.453 24.2564 155.312 24.1191 155.152 23.997C154.809 23.7335 154.468 23.65 154.13 23.7466C153.798 23.8423 153.45 24.127 153.087 24.6006L152.754 25.0345L154.234 26.1705L153.694 26.8756Z" fill="white"/>
<path d="M162.927 33.3535C163.034 33.4595 163.139 33.5767 163.242 33.7052C163.349 33.8305 163.438 33.9478 163.51 34.0571L162.666 34.7031C162.601 34.5938 162.522 34.4796 162.428 34.3608C162.334 34.2419 162.24 34.1359 162.146 34.0427C161.933 33.8308 161.687 33.6738 161.41 33.5717C161.139 33.4696 160.852 33.4287 160.549 33.4492C160.249 33.4664 159.947 33.548 159.641 33.6941C159.339 33.837 159.051 34.0459 158.778 34.3208L155.946 37.1734L155.136 36.3691L160.415 31.0521L161.084 31.7167L160.199 32.7834L160.233 32.8171C160.538 32.729 160.849 32.6811 161.165 32.6735C161.484 32.6627 161.794 32.7099 162.094 32.8152C162.397 32.9236 162.675 33.1031 162.927 33.3535Z" fill="white"/>
<path d="M169.636 40.6989L163.776 45.367L163.069 44.4795L168.929 39.8113L169.636 40.6989ZM171.483 38.5195C171.6 38.6656 171.651 38.8287 171.637 39.0087C171.629 39.1895 171.526 39.3594 171.326 39.5184C171.13 39.6746 170.942 39.7375 170.76 39.7073C170.581 39.6806 170.434 39.5941 170.318 39.448C170.195 39.2947 170.141 39.1281 170.155 38.948C170.172 38.7715 170.278 38.6052 170.474 38.449C170.674 38.29 170.86 38.2235 171.032 38.2495C171.211 38.2762 171.361 38.3662 171.483 38.5195Z" fill="white"/>
<path d="M169.77 53.6674C169.414 53.0944 169.219 52.5158 169.183 51.9317C169.148 51.3476 169.296 50.7833 169.629 50.2389C169.961 49.6945 170.496 49.1939 171.231 48.7371C172.002 48.2588 172.71 47.9959 173.357 47.9485C174.009 47.9026 174.594 48.0328 175.112 48.3392C175.629 48.6455 176.067 49.0872 176.425 49.664C176.622 49.9815 176.779 50.3078 176.896 50.6429C177.019 50.9795 177.092 51.2727 177.113 51.5225L176.125 51.7334C176.082 51.4917 176.013 51.2239 175.916 50.9299C175.821 50.6398 175.706 50.3844 175.569 50.1637C175.295 49.7223 174.972 49.4134 174.599 49.2369C174.229 49.0643 173.815 49.0187 173.355 49.0999C172.899 49.185 172.401 49.3947 171.863 49.7288C171.348 50.0486 170.952 50.3911 170.674 50.7564C170.399 51.1257 170.252 51.5098 170.231 51.9087C170.217 52.3091 170.341 52.7204 170.603 53.1424C170.812 53.4792 171.036 53.7615 171.274 53.9892C171.515 54.2146 171.753 54.4076 171.987 54.5681L171.128 55.1018C170.887 54.9562 170.656 54.7698 170.434 54.5425C170.215 54.3192 169.994 54.0275 169.77 53.6674Z" fill="white"/>
<path d="M182.445 60.4298C182.799 61.2498 182.878 61.9381 182.681 62.4945C182.485 63.051 181.983 63.5035 181.175 63.8522L176.5 65.8711L176.172 65.1117L177.102 64.4719L177.08 64.4216C176.746 64.3376 176.448 64.228 176.186 64.0929C175.928 63.9559 175.696 63.7684 175.489 63.5302C175.288 63.2943 175.101 62.9777 174.93 62.5802C174.749 62.1618 174.662 61.7578 174.667 61.3683C174.674 60.9829 174.786 60.6319 175.002 60.3154C175.219 60.003 175.556 59.7484 176.012 59.5514C176.698 59.2552 177.343 59.2995 177.946 59.6844C178.549 60.0693 179.107 60.811 179.622 61.9095L180.184 63.074L180.604 62.8924C181.198 62.6359 181.56 62.3285 181.688 61.9703C181.816 61.6121 181.78 61.2008 181.58 60.7364C181.424 60.3766 181.224 60.0561 180.978 59.7749C180.733 59.4937 180.476 59.2374 180.207 59.006L180.859 58.3444C181.152 58.5854 181.442 58.8823 181.728 59.2352C182.015 59.5881 182.253 59.9863 182.445 60.4298ZM179.444 63.3785L178.948 62.3494C178.544 61.5061 178.143 60.9621 177.744 60.7172C177.345 60.4724 176.92 60.4475 176.468 60.6426C176.075 60.8124 175.836 61.0572 175.75 61.377C175.665 61.6968 175.707 62.0533 175.877 62.4466C176.141 63.0574 176.526 63.4843 177.033 63.727C177.54 63.9698 178.133 63.9448 178.81 63.6522L179.444 63.3785Z" fill="white"/>
<path d="M182.248 80.8414C182.562 80.7864 182.798 80.8239 182.955 80.9537C183.116 81.0828 183.216 81.2573 183.254 81.4773C183.294 81.7062 183.261 81.911 183.154 82.0917C183.051 82.2716 182.842 82.389 182.528 82.444C182.218 82.4982 181.978 82.4593 181.807 82.3273C181.64 82.1945 181.537 82.0137 181.497 81.7847C181.458 81.5647 181.495 81.3663 181.608 81.1893C181.725 81.0115 181.938 80.8956 182.248 80.8414Z" fill="white"/>
</svg>
