<svg width="35" height="26" viewBox="0 0 35 26" fill="none" xmlns="http://www.w3.org/2000/svg">
<path d="M28.8763 2.15526C26.7022 1.15768 24.3708 0.422713 21.9332 0.00176582C21.8888 -0.00635834 21.8444 0.0139444 21.8216 0.0545507C21.5217 0.587839 21.1896 1.28356 20.957 1.83039C18.3352 1.43787 15.7268 1.43787 13.1587 1.83039C12.9261 1.2714 12.5819 0.587839 12.2807 0.0545507C12.2579 0.0152992 12.2135 -0.00500351 12.1691 0.00176582C9.73284 0.421368 7.40144 1.15634 5.22598 2.15526C5.20715 2.16338 5.191 2.17693 5.18029 2.19451C0.758103 8.80116 -0.45332 15.2454 0.140963 21.6098C0.143652 21.6409 0.161131 21.6707 0.185333 21.6896C3.10297 23.8323 5.92919 25.1331 8.70294 25.9953C8.74733 26.0088 8.79436 25.9926 8.82261 25.956C9.47874 25.06 10.0636 24.1152 10.5651 23.1217C10.5947 23.0635 10.5664 22.9945 10.506 22.9715C9.57824 22.6195 8.69487 22.1905 7.84512 21.7032C7.77791 21.6639 7.77253 21.5678 7.83436 21.5218C8.01318 21.3878 8.19204 21.2484 8.36279 21.1076C8.39368 21.0819 8.43673 21.0765 8.47305 21.0927C14.0555 23.6415 20.0992 23.6415 25.6158 21.0927C25.6521 21.0751 25.6952 21.0806 25.7274 21.1063C25.8982 21.247 26.077 21.3878 26.2572 21.5218C26.319 21.5678 26.315 21.6639 26.2478 21.7032C25.398 22.1999 24.5146 22.6195 23.5856 22.9701C23.5251 22.9931 23.4982 23.0635 23.5278 23.1217C24.04 24.1138 24.6249 25.0586 25.2689 25.9547C25.2958 25.9926 25.3442 26.0088 25.3886 25.9953C28.1758 25.1331 31.002 23.8323 33.9196 21.6896C33.9452 21.6707 33.9613 21.6423 33.964 21.6111C34.6753 14.2532 32.7727 7.86182 28.9207 2.19585C28.9112 2.17693 28.8951 2.16338 28.8763 2.15526ZM11.3988 17.7346C9.71805 17.7346 8.33319 16.1916 8.33319 14.2966C8.33319 12.4016 9.69119 10.8586 11.3988 10.8586C13.1197 10.8586 14.4912 12.4151 14.4643 14.2966C14.4643 16.1916 13.1063 17.7346 11.3988 17.7346ZM22.7331 17.7346C21.0525 17.7346 19.6676 16.1916 19.6676 14.2966C19.6676 12.4016 21.0256 10.8586 22.7331 10.8586C24.4541 10.8586 25.8255 12.4151 25.7987 14.2966C25.7987 16.1916 24.4541 17.7346 22.7331 17.7346Z" fill="#E5ECFF"/>
</svg>
