<svg width="162" height="35" viewBox="0 0 162 35" fill="none" xmlns="http://www.w3.org/2000/svg">
<g clip-path="url(#clip0_110_7728)">
<path d="M32.845 0.922943C34.0877 0.701349 35.3484 0.595969 36.6106 0.608165C38.075 0.476277 39.5422 0.826969 40.7888 1.60677C41.2466 1.92285 41.6177 2.34889 41.8679 2.84579C42.1182 3.34269 42.2397 3.89453 42.2212 4.45063C42.2116 5.19448 41.9671 5.91627 41.5228 6.5128C41.0784 7.10933 40.4568 7.5501 39.7469 7.77206V7.8372C40.6089 8.02716 41.3787 8.50896 41.9265 9.20119C42.4741 9.8934 42.7661 10.7536 42.753 11.6362C42.7646 12.2242 42.6497 12.8078 42.4156 13.3472C42.1815 13.8867 41.8338 14.3693 41.3964 14.7623C40.3112 15.7175 38.6509 16.1951 36.0246 16.1951C34.9615 16.2038 33.899 16.1386 32.845 15.9997V0.922943ZM35.5147 7.02311H36.7409C38.4665 7.02311 39.5299 6.07878 39.5299 4.75454C39.5299 3.43031 38.5858 2.58366 36.8929 2.58366C36.4304 2.57077 35.9679 2.61084 35.5147 2.70307V7.02311ZM35.5147 14.0785C35.9351 14.1382 36.3597 14.1636 36.7843 14.1544C38.488 14.1544 39.9315 13.4163 39.9315 11.5602C39.9315 9.70414 38.4665 8.99861 36.6758 8.98775H35.5147V14.0785Z" fill="white"/>
<path d="M44.4785 0.0111694H47.1699V16.054H44.4785V0.0111694Z" fill="white"/>
<path d="M59.0421 10.4314C59.0421 14.6212 56.3507 16.2927 53.8548 16.2927C50.9897 16.2927 48.8193 14.187 48.8193 10.5833C48.8193 6.97966 51.0875 4.74365 54.05 4.74365C57.0128 4.74365 59.0421 6.97966 59.0421 10.4314ZM51.5323 10.5182C51.5323 12.5697 52.3788 14.2955 53.9415 14.2955C55.5043 14.2955 56.2965 12.5588 56.2965 10.4965C56.2965 8.79234 55.6778 6.73 53.9415 6.73C52.2052 6.73 51.5323 8.69465 51.5323 10.5182Z" fill="white"/>
<path d="M68.2447 15.7609C67.373 16.1136 66.4392 16.2872 65.499 16.271C62.2435 16.271 60.1815 14.1001 60.1815 10.6159C60.1302 9.84214 60.2429 9.06628 60.5124 8.33918C60.7818 7.61205 61.2017 6.95008 61.7448 6.39666C62.2879 5.84324 62.9418 5.41087 63.6636 5.12786C64.3853 4.84486 65.1588 4.71764 65.9331 4.75452C66.7611 4.74469 67.5829 4.89583 68.3532 5.19954L67.8865 7.26188C67.3118 6.99805 66.6847 6.86817 66.0526 6.88198C64.0123 6.88198 62.9271 8.47758 62.9271 10.5182C62.9271 12.7868 64.2294 14.1218 66.0199 14.1218C66.6694 14.1329 67.3136 14.0033 67.9082 13.7419L68.2447 15.7609Z" fill="white"/>
<path d="M72.3465 9.86695C72.5853 9.40022 72.8674 8.94433 73.1279 8.53187L75.5479 4.97163H78.6951L74.9836 9.53046L79.1618 16.0431H75.9494L73.1387 11.1586L72.314 12.2441V16.0431H69.6553V0.0111694H72.3465V9.86695Z" fill="white"/>
<path d="M86.9971 15.7609C86.1258 16.1148 85.1918 16.2884 84.2515 16.271C80.9959 16.271 78.9339 14.1001 78.9339 10.6159C78.8826 9.84214 78.9954 9.06629 79.2648 8.33918C79.5341 7.61205 79.9542 6.95008 80.4973 6.39666C81.0402 5.84324 81.6942 5.41087 82.4159 5.12786C83.1377 4.84486 83.9112 4.71764 84.6855 4.75452C85.4989 4.75028 86.3056 4.90132 87.0622 5.19954L86.5955 7.26188C86.0211 6.99696 85.3939 6.86702 84.7616 6.88198C82.7865 6.88198 81.6579 8.47758 81.6686 10.5182C81.6686 12.7868 82.9819 14.111 84.7724 14.111C85.4218 14.122 86.0661 13.9925 86.6607 13.7311L86.9971 15.7609Z" fill="white"/>
<path d="M88.4077 0.0111694H91.1424V6.3827C91.4751 5.87816 91.928 5.46424 92.4602 5.17815C92.9925 4.89205 93.5876 4.74275 94.1918 4.74369C96.0367 4.74369 97.7188 6.05707 97.7188 9.38937V16.054H95.0274V9.62816C95.0274 8.14111 94.5499 6.95798 93.15 6.95798C92.7067 6.96567 92.2777 7.11683 91.9277 7.38883C91.5774 7.66084 91.3247 8.03903 91.2075 8.46673C91.1299 8.74209 91.0933 9.02737 91.099 9.31338V16.054H88.4077V0.0111694Z" fill="white"/>
<path d="M105.63 16.054L105.446 14.8491H105.391C105.043 15.3113 104.59 15.6836 104.069 15.9347C103.548 16.1859 102.974 16.3086 102.396 16.2928C101.966 16.3032 101.538 16.2261 101.138 16.0661C100.738 15.9061 100.375 15.6667 100.071 15.3622C99.7665 15.0577 99.527 14.6946 99.3671 14.2948C99.2072 13.895 99.1301 13.4669 99.1406 13.0364C99.1406 10.2252 101.615 8.86837 105.218 8.87922V8.66212C105.218 7.80464 104.881 6.70835 103.145 6.7192C102.192 6.72314 101.258 6.98574 100.443 7.479L99.9111 5.70974C101.054 5.08334 102.341 4.76538 103.644 4.78712C106.987 4.78712 107.92 6.95799 107.92 9.34595V13.4706C107.906 14.3491 107.96 15.2274 108.083 16.0974L105.63 16.054ZM105.261 10.6268C103.59 10.6268 101.756 10.985 101.756 12.7434C101.729 12.9506 101.748 13.1612 101.81 13.3606C101.873 13.56 101.978 13.7434 102.118 13.8983C102.258 14.0531 102.431 14.1756 102.623 14.2573C102.815 14.339 103.023 14.378 103.232 14.3715C103.671 14.3749 104.1 14.2346 104.452 13.9721C104.805 13.7096 105.062 13.3391 105.185 12.917C105.238 12.7225 105.264 12.5216 105.261 12.3201V10.6268Z" fill="white"/>
<path d="M112.847 1.93236C112.853 2.13265 112.818 2.33209 112.742 2.51777C112.667 2.70347 112.554 2.8713 112.409 3.01041C112.265 3.14954 112.094 3.25684 111.905 3.32543C111.717 3.39402 111.516 3.42233 111.317 3.40855C111.123 3.41488 110.929 3.38076 110.749 3.30837C110.569 3.23598 110.406 3.1269 110.27 2.98808C110.134 2.84926 110.029 2.68372 109.961 2.50197C109.892 2.32022 109.863 2.12624 109.873 1.93236C109.873 1.53797 110.03 1.15974 110.309 0.880861C110.587 0.601985 110.966 0.445312 111.36 0.445312C111.754 0.445312 112.132 0.601985 112.411 0.880861C112.69 1.15974 112.847 1.53797 112.847 1.93236ZM110.014 16.0431V4.97159H112.706V16.0539L110.014 16.0431Z" fill="white"/>
<path d="M114.833 8.217C114.833 6.94703 114.833 5.93757 114.735 4.96068H117.09L117.187 6.52372C117.529 5.96962 118.008 5.51405 118.579 5.20191C119.15 4.88976 119.793 4.73179 120.443 4.7436C122.353 4.7436 124.046 6.04612 124.046 9.26987V16.0539H121.355V9.54124C121.355 8.08674 120.877 6.91447 119.488 6.91447C119.04 6.92952 118.609 7.09023 118.261 7.37228C117.912 7.65434 117.665 8.04233 117.556 8.47751C117.462 8.7757 117.418 9.08749 117.426 9.40013V16.0213H114.735L114.833 8.217Z" fill="white"/>
<path d="M129.125 0.705872V6.91458H134.757V0.705872H137.448V16.054H134.757V9.29169H129.125V16.054H126.412V0.705872H129.125Z" fill="white"/>
<path d="M148.93 12.765C148.93 14.0458 148.93 15.1421 149.017 16.0213H146.673L146.532 14.5017C146.189 15.065 145.703 15.5275 145.124 15.8421C144.544 16.1567 143.892 16.3121 143.233 16.2927C141.214 16.2927 139.684 14.9793 139.684 11.571V4.97156H142.375V11.1586C142.375 12.9278 142.864 14.0784 144.209 14.0784C144.624 14.0685 145.026 13.9309 145.36 13.6842C145.694 13.4375 145.944 13.0938 146.076 12.6999C146.182 12.4154 146.233 12.1134 146.228 11.8098V4.97156H148.919L148.93 12.765Z" fill="white"/>
<path d="M151.057 16.054C151.057 15.2833 151.154 14.0459 151.154 12.9822V0.0111694H153.835V6.40441C154.169 5.86924 154.64 5.43307 155.199 5.14108C155.758 4.8491 156.385 4.71189 157.015 4.74369C159.489 4.74369 161.193 6.97969 161.171 10.3228C161.171 14.2955 158.925 16.2928 156.602 16.2928C155.966 16.3177 155.336 16.1603 154.786 15.8392C154.236 15.518 153.79 15.0465 153.499 14.4801H153.444L153.314 16.054H151.057ZM153.835 11.7122C153.836 11.9386 153.861 12.1643 153.911 12.3852C153.999 12.8949 154.266 13.3565 154.664 13.6868C155.062 14.0171 155.564 14.1945 156.081 14.187C157.666 14.187 158.545 12.7434 158.545 10.5074C158.545 8.53187 157.742 6.93627 156.092 6.93627C155.574 6.96023 155.079 7.15711 154.685 7.49548C154.292 7.83387 154.023 8.29426 153.922 8.80322C153.87 9.04228 153.841 9.28583 153.835 9.53046V11.7122Z" fill="white"/>
<path d="M35.569 30.8158L34.1581 34.6475H33.29L37.3595 23.5651H38.3688L42.6119 34.6475H41.6787L40.2354 30.8158H35.569ZM39.9097 30.0344C38.6725 26.7781 38.0433 25.1499 37.8152 24.4119C37.5439 25.2476 36.8278 27.2122 35.8293 30.0344H39.9097Z" fill="white"/>
<path d="M44.4133 34.6475V27.4836H43.0459V26.7346H44.4133V25.6493C44.4133 24.3141 44.7932 22.8597 46.5837 22.8597C46.8479 22.8608 47.1106 22.8973 47.3651 22.9683V23.728C47.0839 23.6634 46.7963 23.6308 46.5078 23.6304C45.5746 23.6304 45.2272 24.3033 45.2272 25.671V26.7564H46.9528V27.5053H45.2055V34.6692L44.4133 34.6475Z" fill="white"/>
<path d="M48.2551 28.8947C48.2551 27.5596 48.2551 26.9843 48.2551 26.7238H49.0256C49.0256 26.9734 49.0256 27.4836 49.0256 28.493C49.2338 27.927 49.6087 27.4373 50.1008 27.0885C50.5928 26.7397 51.179 26.5482 51.782 26.5392V27.386C51.391 27.3989 51.0068 27.492 50.6532 27.6592C50.2994 27.8263 49.9839 28.0643 49.7255 28.3582C49.4674 28.652 49.272 28.9958 49.1516 29.368C49.0311 29.7404 48.9882 30.1333 49.0256 30.5229V34.6367H48.2334L48.2551 28.8947Z" fill="white"/>
<path d="M53.2578 22.979H54.05V24.5203H53.2578V22.979ZM53.2578 26.7346H54.05V34.6475H53.2578V26.7346Z" fill="white"/>
<path d="M62.4715 32.3247C62.3446 33.0422 61.9653 33.6905 61.4018 34.1524C60.8385 34.6143 60.1285 34.8591 59.4002 34.8428C57.4252 34.8428 56.0144 33.3668 56.0144 30.7291C56.0144 28.5581 57.1647 26.5502 59.498 26.5502C60.2239 26.5071 60.9385 26.7462 61.4925 27.2174C62.0464 27.6887 62.3971 28.3555 62.4715 29.0793H61.6684C61.5782 28.5714 61.3102 28.1124 60.9126 27.7843C60.5149 27.4561 60.0135 27.2803 59.498 27.2882C57.8268 27.2882 56.8717 28.7101 56.8717 30.6965C56.8717 32.6829 57.7617 34.0939 59.4219 34.0939C59.9472 34.111 60.4618 33.9433 60.8762 33.62C61.2907 33.2968 61.5787 32.8384 61.6901 32.3247H62.4715Z" fill="white"/>
<path d="M69.7966 33.1496C69.7931 33.651 69.8294 34.1518 69.905 34.6475H69.1455C69.0552 34.2484 69.0079 33.841 69.0042 33.4318C68.7668 33.9029 68.3913 34.2904 67.9278 34.5425C67.4645 34.7946 66.9352 34.8994 66.4106 34.8429C66.0775 34.8816 65.7401 34.8486 65.4207 34.7463C65.1014 34.644 64.8076 34.4747 64.559 34.2497C64.3102 34.0246 64.1127 33.7491 63.979 33.4413C63.8454 33.1337 63.7791 32.8011 63.7845 32.4657C63.7845 30.729 65.1302 29.9366 67.5067 29.9366H69.0042V29.1225C69.0042 28.3302 68.7656 27.2773 66.9641 27.2773C65.3688 27.2773 65.1302 28.1131 64.9565 28.7645H64.1643C64.2619 27.896 64.7938 26.5936 66.9858 26.5936C68.7873 26.5936 69.7966 27.3534 69.7966 29.0901V33.1496ZM69.026 30.6205H67.4742C65.7162 30.6205 64.6201 31.0765 64.6201 32.4332C64.6159 32.6675 64.6613 32.9 64.7534 33.1156C64.8454 33.3311 64.9821 33.5246 65.1543 33.6835C65.3264 33.8425 65.5304 33.9631 65.7526 34.0375C65.9747 34.1121 66.21 34.1387 66.4433 34.1156C68.7112 34.1156 69.026 32.6069 69.026 30.8593V30.6205Z" fill="white"/>
<path d="M10.8913 18.4637C14.1889 18.3645 17.4626 19.0528 20.4411 20.4716C24.5108 22.5449 25.2378 26.0507 22.3294 29.5893C20.1735 32.3063 17.0742 34.112 13.6477 34.6475C12.8 34.8361 11.9191 34.8151 11.0814 34.5862C10.2437 34.3574 9.47439 33.9276 8.84026 33.3341C6.02958 30.6204 3.24058 27.8201 0.636084 24.9762C-0.449125 23.7606 -0.134414 22.5122 1.4934 21.3291C4.1161 19.6202 7.15533 18.6594 10.2836 18.5505L10.8913 18.4637Z" fill="url(#paint0_linear_110_7728)"/>
<path d="M10.8913 16.2927C14.1889 16.3918 17.4626 15.7035 20.4411 14.2847C24.5108 12.2332 25.2378 8.69466 22.3294 5.17783C20.1724 2.4641 17.0728 0.662144 13.6477 0.130545C12.8009 -0.060446 11.9203 -0.0416194 11.0825 0.185387C10.2446 0.412394 9.47489 0.840707 8.84026 1.43307C6.02958 4.17924 3.24058 6.9688 0.636084 9.84523C-0.449125 11.0609 -0.134414 12.32 1.4934 13.4923C4.1141 15.2084 7.15334 16.1767 10.2836 16.2927H10.8913Z" fill="url(#paint1_linear_110_7728)"/>
</g>
<defs>
<linearGradient id="paint0_linear_110_7728" x1="12.0468" y1="-2.49728e-05" x2="12.0468" y2="34.775" gradientUnits="userSpaceOnUse">
<stop stop-color="#00BDFF"/>
<stop offset="1" stop-color="#0043FF"/>
</linearGradient>
<linearGradient id="paint1_linear_110_7728" x1="12.0468" y1="1.09369e-08" x2="12.0468" y2="34.775" gradientUnits="userSpaceOnUse">
<stop stop-color="#00BDFF"/>
<stop offset="1" stop-color="#0043FF"/>
</linearGradient>
<clipPath id="clip0_110_7728">
<rect width="161.23" height="35" fill="white"/>
</clipPath>
</defs>
</svg>
