<svg width="60" height="60" viewBox="0 0 60 60" fill="none" xmlns="http://www.w3.org/2000/svg">
<circle cx="30" cy="30" r="30" fill="#EEF0FF"/>
<path d="M30 45C21.7155 45 15 38.2845 15 30C15 21.7155 21.7155 15 30 15C38.2845 15 45 21.7155 45 30C45 38.2845 38.2845 45 30 45ZM30 42C33.1826 42 36.2348 40.7357 38.4853 38.4853C40.7357 36.2348 42 33.1826 42 30C42 26.8174 40.7357 23.7652 38.4853 21.5147C36.2348 19.2643 33.1826 18 30 18C26.8174 18 23.7652 19.2643 21.5147 21.5147C19.2643 23.7652 18 26.8174 18 30C18 33.1826 19.2643 36.2348 21.5147 38.4853C23.7652 40.7357 26.8174 42 30 42V42ZM24 31.5H36C36 33.0913 35.3679 34.6174 34.2426 35.7426C33.1174 36.8679 31.5913 37.5 30 37.5C28.4087 37.5 26.8826 36.8679 25.7574 35.7426C24.6321 34.6174 24 33.0913 24 31.5V31.5ZM24 28.5C23.4033 28.5 22.831 28.2629 22.409 27.841C21.9871 27.419 21.75 26.8467 21.75 26.25C21.75 25.6533 21.9871 25.081 22.409 24.659C22.831 24.2371 23.4033 24 24 24C24.5967 24 25.169 24.2371 25.591 24.659C26.0129 25.081 26.25 25.6533 26.25 26.25C26.25 26.8467 26.0129 27.419 25.591 27.841C25.169 28.2629 24.5967 28.5 24 28.5ZM36 28.5C35.4033 28.5 34.831 28.2629 34.409 27.841C33.9871 27.419 33.75 26.8467 33.75 26.25C33.75 25.6533 33.9871 25.081 34.409 24.659C34.831 24.2371 35.4033 24 36 24C36.5967 24 37.169 24.2371 37.591 24.659C38.0129 25.081 38.25 25.6533 38.25 26.25C38.25 26.8467 38.0129 27.419 37.591 27.841C37.169 28.2629 36.5967 28.5 36 28.5Z" fill="#3B4EF2"/>
</svg>
