<svg width="27" height="26" viewBox="0 0 27 26" fill="none" xmlns="http://www.w3.org/2000/svg">
<path d="M19.398 0C23.3546 0 26.5734 3.21882 26.5732 7.17506V18.8249C26.5732 22.7812 23.3546 26 19.398 26H7.74815C3.79191 26 0.573242 22.7813 0.573242 18.8249V7.17506C0.573242 3.21882 3.79191 0 7.74815 0H19.398ZM24.2666 18.8249H24.2664V7.17506C24.2664 4.49081 22.0824 2.30685 19.398 2.30685H7.74815C5.0639 2.30685 2.88009 4.49081 2.88009 7.17506V18.8249C2.88009 21.5093 5.0639 23.6933 7.74815 23.6932H19.3982C22.0826 23.6932 24.2666 21.5093 24.2666 18.8249ZM13.5732 6.5C17.1574 6.5 20.0732 9.41591 20.0732 13.0001C20.0732 16.5842 17.1574 19.5 13.5732 19.5C9.98909 19.5 7.07324 16.5842 7.07324 13.0001C7.07324 9.41591 9.98909 6.5 13.5732 6.5ZM13.5732 17.2617C15.9231 17.2617 17.8351 15.3499 17.8351 13C17.8351 10.6499 15.9233 8.73804 13.5732 8.73804C11.2232 8.73804 9.31138 10.6499 9.31138 13C9.31138 15.3499 11.2233 17.2617 13.5732 17.2617ZM20.6149 4.33333C21.0433 4.33333 21.4629 4.50617 21.7642 4.80902C22.0671 5.11038 22.2399 5.52992 22.2399 5.95833C22.2399 6.38526 22.0671 6.80481 21.7642 7.10765C21.4614 7.40902 21.0433 7.58333 20.6149 7.58333C20.188 7.58333 19.7684 7.40902 19.4671 7.10765C19.1642 6.80481 18.9899 6.38541 18.9899 5.95833C18.9899 5.52992 19.1641 5.11038 19.4671 4.80902C19.7686 4.50617 20.188 4.33333 20.6149 4.33333Z" fill="#E5ECFF"/>
</svg>
