<svg width="22" height="22" viewBox="0 0 22 22" fill="none" xmlns="http://www.w3.org/2000/svg">
<path d="M18.0915 14.4805L16.3297 12.7187L18.0915 10.957C18.5543 10.4941 18.9214 9.94471 19.1719 9.34003C19.4223 8.73534 19.5512 8.08725 19.5512 7.43274C19.5512 6.77823 19.4223 6.13013 19.1719 5.52545C18.9214 4.92076 18.5543 4.37133 18.0915 3.90853C17.6287 3.44572 17.0792 3.0786 16.4746 2.82814C15.8699 2.57767 15.2218 2.44875 14.5673 2.44875C13.9128 2.44875 13.2647 2.57767 12.66 2.82814C12.0553 3.0786 11.5059 3.44572 11.043 3.90853L9.28125 5.67032L7.51946 3.90853L9.28125 2.14673C10.6871 0.763612 12.5825 -0.00796831 14.5547 6.20605e-05C16.5268 0.00809243 18.4159 0.795083 19.8104 2.18961C21.2049 3.58413 21.9919 5.47321 21.9999 7.44535C22.008 9.41749 21.2364 11.3129 19.8533 12.7187L18.0915 14.4805V14.4805ZM14.5666 18.0054L12.8048 19.7672C12.1127 20.4706 11.2882 21.0301 10.3788 21.4133C9.46937 21.7966 8.49308 21.9959 7.50623 21.9999C6.51938 22.004 5.5415 21.8125 4.629 21.4368C3.71649 21.061 2.88742 20.5082 2.18961 19.8104C1.49179 19.1126 0.939047 18.2835 0.56325 17.371C0.187453 16.4585 -0.00395638 15.4806 6.19806e-05 14.4938C0.00408034 13.5069 0.203447 12.5306 0.586663 11.6212C0.969878 10.7118 1.52936 9.88726 2.23283 9.19516L3.99463 7.43336L5.75642 9.19516L3.99463 10.957C3.53182 11.4198 3.1647 11.9692 2.91423 12.5739C2.66376 13.1786 2.53485 13.8267 2.53485 14.4812C2.53485 15.1357 2.66376 15.7838 2.91423 16.3885C3.1647 16.9931 3.53182 17.5426 3.99463 18.0054C4.45743 18.4682 5.00686 18.8353 5.61155 19.0858C6.21623 19.3362 6.86433 19.4652 7.51884 19.4652C8.17334 19.4652 8.82144 19.3362 9.42613 19.0858C10.0308 18.8353 10.5802 18.4682 11.043 18.0054L12.8048 16.2436L14.5666 18.0054ZM14.5666 5.67032L16.3297 7.43336L7.51946 16.2423L5.75642 14.4805L14.5666 5.67157V5.67032Z" fill="#FF9900"/>
</svg>
