<svg width="34" height="34" viewBox="0 0 34 34" fill="none" xmlns="http://www.w3.org/2000/svg">
<g clip-path="url(#clip0_1317_7742)">
<path d="M17 33.6147L7.98434 24.599C6.20124 22.8159 4.98693 20.544 4.49498 18.0708C4.00303 15.5975 4.25553 13.0339 5.22056 10.7042C6.18558 8.37444 7.81978 6.38317 9.9165 4.98219C12.0132 3.58121 14.4783 2.83344 17 2.83344C19.5217 2.83344 21.9868 3.58121 24.0835 4.98219C26.1802 6.38317 27.8144 8.37444 28.7795 10.7042C29.7445 13.0339 29.997 15.5975 29.505 18.0708C29.0131 20.544 27.7988 22.8159 26.0157 24.599L17 33.6147ZM24.0125 22.5958C25.3993 21.2089 26.3436 19.4419 26.7262 17.5183C27.1088 15.5947 26.9123 13.6008 26.1617 11.7889C25.4111 9.97689 24.1401 8.42818 22.5093 7.33856C20.8785 6.24895 18.9613 5.66737 17 5.66737C15.0387 5.66737 13.1215 6.24895 11.4907 7.33856C9.85994 8.42818 8.5889 9.97689 7.8383 11.7889C7.0877 13.6008 6.89126 15.5947 7.27381 17.5183C7.65637 19.4419 8.60074 21.2089 9.98751 22.5958L17 29.6083L24.0125 22.5958ZM17 18.4167C16.2486 18.4167 15.5279 18.1181 14.9965 17.5868C14.4652 17.0554 14.1667 16.3348 14.1667 15.5833C14.1667 14.8319 14.4652 14.1112 14.9965 13.5799C15.5279 13.0485 16.2486 12.75 17 12.75C17.7515 12.75 18.4721 13.0485 19.0035 13.5799C19.5348 14.1112 19.8333 14.8319 19.8333 15.5833C19.8333 16.3348 19.5348 17.0554 19.0035 17.5868C18.4721 18.1181 17.7515 18.4167 17 18.4167Z" fill="#FF9900"/>
</g>
<defs>
<clipPath id="clip0_1317_7742">
<rect width="34" height="34" fill="white"/>
</clipPath>
</defs>
</svg>
