<svg width="66" height="96" viewBox="0 0 66 96" fill="none" xmlns="http://www.w3.org/2000/svg">
<path d="M29.8346 50.6499C38.8677 50.378 47.8354 52.2659 55.9946 56.1581C67.1425 61.8455 69.1341 71.4629 61.1672 81.1698C55.2615 88.6233 46.7714 93.5767 37.3853 95.0455C35.0632 95.5629 32.6502 95.5052 30.3553 94.8774C28.0605 94.2497 25.9533 93.0708 24.2162 91.4427C16.5169 83.9985 8.87694 76.3166 1.74243 68.5151C-1.23029 65.1805 -0.368201 61.7559 4.09088 58.5104C11.2753 53.8224 19.6006 51.1867 28.1699 50.8881L29.8346 50.6499Z" fill="white"/>
<path d="M29.8346 44.6944C38.8677 44.9663 47.8354 43.0779 55.9946 39.1858C67.1425 33.5582 69.1341 23.8513 61.1672 14.2039C55.2583 6.75955 46.7677 1.8164 37.3853 0.358113C35.0657 -0.165816 32.6534 -0.114171 30.3583 0.508556C28.0632 1.13128 25.9546 2.30624 24.2162 3.93122C16.5169 11.4645 8.87694 19.1169 1.74243 27.0075C-1.23029 30.3424 -0.368201 33.7964 4.09088 37.0122C11.2698 41.72 19.5952 44.3761 28.1699 44.6944H29.8346Z" fill="white"/>
</svg>
