<svg width="100" height="100" viewBox="0 0 100 100" fill="none" xmlns="http://www.w3.org/2000/svg">
<g clip-path="url(#clip0_1433_7764)">
<path d="M50 100C77.6142 100 100 77.6142 100 50C100 22.3858 77.6142 0 50 0C22.3858 0 0 22.3858 0 50C0 77.6142 22.3858 100 50 100Z" fill="#EEFFEE"/>
<path d="M50 75C36.1925 75 25 63.8075 25 50C25 36.1925 36.1925 25 50 25C63.8075 25 75 36.1925 75 50C75 63.8075 63.8075 75 50 75ZM50 70C55.3043 70 60.3913 67.8928 64.1422 64.1422C67.8928 60.3913 70 55.3043 70 50C70 44.6957 67.8928 39.6087 64.1422 35.8578C60.3913 32.1072 55.3043 30 50 30C44.6957 30 39.6087 32.1072 35.8578 35.8578C32.1072 39.6087 30 44.6957 30 50C30 55.3043 32.1072 60.3913 35.8578 64.1422C39.6087 67.8928 44.6957 70 50 70ZM47.5075 60L36.9 49.3925L40.435 45.8575L47.5075 52.93L61.6475 38.7875L65.185 42.3225L47.5075 60Z" fill="#318509"/>
</g>
<defs>
<clipPath id="clip0_1433_7764">
<rect width="100" height="100" fill="white"/>
</clipPath>
</defs>
</svg>
