<svg width="136" height="73" viewBox="0 0 136 73" fill="none" xmlns="http://www.w3.org/2000/svg">
<path d="M134.272 51.8623C130.458 48.8398 126.573 46.1114 122.519 43.4899C118.996 41.0262 115.085 37.8174 111.013 36.4502C108.796 35.6341 106.813 39.1388 108.649 40.9439C108.649 40.9439 108.746 41.1302 108.914 41.0226C108.869 41.7965 108.727 42.3844 108.514 43.2656C108.346 43.3731 108.107 43.7742 107.939 43.8817C107.7 44.2831 107.558 44.8707 107.416 45.4586C95.5303 45.8641 83.8388 46.6422 72.1404 45.6861C68.6502 45.4366 65.231 44.8929 61.786 43.8698C67.2505 32.4244 72.1188 16.3929 64.1597 5.84087C53.5886 -8.00645 43.0011 9.94691 42.1315 21.183C40.8622 34.6619 45.4662 42.6428 55.6145 47.0747C51.8422 54.4565 46.8163 61.1511 40.4056 64.7575C25.1618 73.7701 14.8819 60.4814 12.2471 45.5278C17.5854 44.5944 22.9164 41.927 26.7029 38.0131C33.6293 31.0959 33.7017 13.1676 24.0834 8.89313C14.5621 4.80496 7.91833 28.1814 7.48691 34.6666C7.32586 36.5082 7.26209 38.5359 7.36605 40.4563C7.10104 40.3776 6.93276 40.4853 6.66802 40.4064C-9.8906 39.581 -5.39106 21.5508 0.461397 10.8506C1.41747 9.24512 -0.825589 7.94895 -1.87866 9.36811C-8.55213 19.3521 -14.4097 34.7745 -2.25037 42.638C0.716712 44.4642 4.16182 45.4877 7.72296 45.4434C9.36177 58.0542 15.5699 69.9759 27.8502 72.0492C42.5867 74.5376 52.7816 60.5614 59.4221 48.3632C59.6869 48.4417 59.6869 48.4417 59.9521 48.5207C74.7216 53.2232 91.2213 51.3543 106.474 50.532C106.313 52.3736 106.249 54.4018 106.088 56.2431C106.069 57.4974 106.916 58.6938 107.976 59.0084C116.501 60.7538 125.523 60.4424 133.763 56.9069C135.902 56.2829 136.179 53.3739 134.272 51.8623ZM52.265 39.7814C44.8828 35.0691 45.733 25.0871 47.3853 17.0754C49.5086 6.52693 59.7191 2.47475 63.3997 14.2753C65.2046 20.3224 63.0674 27.4028 61.3822 33.2003C60.5041 36.246 59.2904 39.5069 57.8113 42.689C55.859 41.9518 53.9778 40.9203 52.265 39.7814ZM11.7934 40.3547C11.7934 40.3547 11.6964 40.1684 11.7934 40.3547C11.5262 33.82 12.9467 27.9435 15.5946 22.2748C16.7637 19.7879 18.1978 17.3797 20.091 15.4229C24.8333 9.90369 27.2151 21.7905 27.397 25.1511C27.5549 34.4878 19.1994 39.0911 11.7934 40.3547ZM111.18 53.9772C111.083 53.7909 111.251 53.6834 111.154 53.4971C111.658 53.1745 111.968 52.479 111.916 51.5191C111.741 49.8926 111.734 48.1585 111.727 46.4242C111.772 45.6503 112.198 43.8874 111.862 44.1025C112.03 43.9949 112.101 43.7011 112.004 43.5148C114.079 44.9182 116.49 46.1072 118.565 47.5106C121.267 49.258 124.066 51.1917 126.865 53.1258C121.986 54.5111 116.525 54.7781 111.18 53.9772Z" fill="#FF9900"/>
</svg>
