<svg width="34" height="35" viewBox="0 0 34 35" fill="none" xmlns="http://www.w3.org/2000/svg">
<path d="M2.83203 6.16667C2.83203 5.79094 2.98129 5.43061 3.24696 5.16493C3.51264 4.89926 3.87297 4.75 4.2487 4.75H29.7487C30.1244 4.75 30.4848 4.89926 30.7504 5.16493C31.0161 5.43061 31.1654 5.79094 31.1654 6.16667V13.9583C30.2261 13.9583 29.3252 14.3315 28.661 14.9957C27.9968 15.6599 27.6237 16.5607 27.6237 17.5C27.6237 18.4393 27.9968 19.3401 28.661 20.0043C29.3252 20.6685 30.2261 21.0417 31.1654 21.0417V28.8333C31.1654 29.2091 31.0161 29.5694 30.7504 29.8351C30.4848 30.1007 30.1244 30.25 29.7487 30.25H4.2487C3.87297 30.25 3.51264 30.1007 3.24696 29.8351C2.98129 29.5694 2.83203 29.2091 2.83203 28.8333V6.16667ZM11.4524 27.4167C11.5985 27.0016 11.8697 26.6421 12.2288 26.3878C12.5879 26.1334 13.017 25.9968 13.457 25.9968C13.897 25.9968 14.3262 26.1334 14.6853 26.3878C15.0443 26.6421 15.3156 27.0016 15.4616 27.4167H28.332V23.212C27.2678 22.6846 26.3721 21.8703 25.7459 20.8611C25.1197 19.8519 24.7879 18.6877 24.7879 17.5C24.7879 16.3123 25.1197 15.1481 25.7459 14.1389C26.3721 13.1297 27.2678 12.3154 28.332 11.788V7.58333H15.4616C15.3156 7.99841 15.0443 8.35792 14.6853 8.61225C14.3262 8.86657 13.897 9.00316 13.457 9.00316C13.017 9.00316 12.5879 8.86657 12.2288 8.61225C11.8697 8.35792 11.5985 7.99841 11.4524 7.58333H5.66536V27.4167H11.4524ZM13.457 16.0833C12.8934 16.0833 12.3529 15.8595 11.9544 15.4609C11.5559 15.0624 11.332 14.5219 11.332 13.9583C11.332 13.3947 11.5559 12.8542 11.9544 12.4557C12.3529 12.0572 12.8934 11.8333 13.457 11.8333C14.0206 11.8333 14.5611 12.0572 14.9596 12.4557C15.3581 12.8542 15.582 13.3947 15.582 13.9583C15.582 14.5219 15.3581 15.0624 14.9596 15.4609C14.5611 15.8595 14.0206 16.0833 13.457 16.0833ZM13.457 23.1667C12.8934 23.1667 12.3529 22.9428 11.9544 22.5443C11.5559 22.1458 11.332 21.6053 11.332 21.0417C11.332 20.4781 11.5559 19.9376 11.9544 19.5391C12.3529 19.1405 12.8934 18.9167 13.457 18.9167C14.0206 18.9167 14.5611 19.1405 14.9596 19.5391C15.3581 19.9376 15.582 20.4781 15.582 21.0417C15.582 21.6053 15.3581 22.1458 14.9596 22.5443C14.5611 22.9428 14.0206 23.1667 13.457 23.1667Z" fill="white"/>
</svg>
