<svg width="32" height="26" viewBox="0 0 32 26" fill="none" xmlns="http://www.w3.org/2000/svg">
<path d="M31.1482 3.00058C30.6494 3.22185 30.1364 3.4086 29.6124 3.56022C30.2328 2.8585 30.7059 2.03283 30.9947 1.1293C31.0594 0.926778 30.9923 0.705098 30.8259 0.572642C30.6596 0.440084 30.4286 0.424206 30.2455 0.53269C29.1325 1.19282 27.9317 1.66722 26.6726 1.94463C25.4043 0.705303 23.6817 0 21.9008 0C18.1418 0 15.0835 3.05815 15.0835 6.8171C15.0835 7.11316 15.1023 7.40757 15.1394 7.69789C10.4747 7.28833 6.13813 4.99561 3.16018 1.34269C3.05405 1.21248 2.89056 1.14231 2.72317 1.15573C2.55568 1.16885 2.4052 1.2633 2.32058 1.40845C1.71659 2.44484 1.39728 3.63018 1.39728 4.83621C1.39728 6.47885 1.98376 8.03737 3.01974 9.25519C2.70473 9.14609 2.39905 9.00974 2.1073 8.84778C1.95067 8.7606 1.75951 8.76194 1.60391 8.85116C1.4482 8.94039 1.35057 9.1045 1.34647 9.28387C1.34576 9.31409 1.34576 9.34431 1.34576 9.37494C1.34576 11.8269 2.66539 14.0343 4.68296 15.2375C4.50963 15.2202 4.3364 15.1951 4.1643 15.1622C3.98688 15.1283 3.80443 15.1905 3.68478 15.3258C3.56492 15.461 3.52528 15.6495 3.5805 15.8216C4.32729 18.1532 6.24999 19.8681 8.57436 20.391C6.64654 21.5984 4.44192 22.2309 2.12758 22.2309C1.64468 22.2309 1.15901 22.2025 0.683685 22.1463C0.447559 22.1182 0.221781 22.2576 0.141365 22.4822C0.0609492 22.7068 0.14618 22.9573 0.347065 23.0861C3.32019 24.9924 6.75799 26 10.2886 26C17.2294 26 21.5713 22.727 23.9914 19.9813C27.0093 16.5577 28.7402 12.026 28.7402 7.54843C28.7402 7.36137 28.7373 7.17247 28.7316 6.98418C29.9222 6.08711 30.9474 5.00145 31.7815 3.75362C31.9082 3.56411 31.8945 3.31364 31.7477 3.13918C31.6011 2.96463 31.3568 2.90818 31.1482 3.00058Z" fill="#E5ECFF"/>
</svg>
