<svg width="38" height="26" viewBox="0 0 38 26" fill="none" xmlns="http://www.w3.org/2000/svg">
<path fill-rule="evenodd" clip-rule="evenodd" d="M27.6993 0C32.3711 0 34.8174 0.646645 36.1424 2.23191C37.4735 3.82422 37.5731 6.26314 37.5731 9.80205V16.1981C37.5731 20.2534 36.9376 22.5958 35.4482 24.0304C33.9958 25.4294 31.7508 26 27.6994 26H10.7406C2.39415 26 0.867188 22.6992 0.867188 16.1981V9.80205C0.867188 6.44631 0.867188 4.02169 2.15414 2.37612C3.47413 0.688357 5.96185 0 10.7406 0H27.6993ZM16.7315 17.9341L24.4324 13.8832C24.8236 13.6775 25.0686 13.2698 25.0682 12.8253C25.0676 12.3811 24.8215 11.974 24.4297 11.7693L16.7288 7.74449C16.3619 7.55262 15.922 7.5674 15.5683 7.78358C15.2148 7.99977 14.999 8.3859 14.999 8.80206V16.8779C14.999 17.2947 15.2154 17.6812 15.5696 17.8973C15.7578 18.0119 15.9702 18.0696 16.1831 18.0696C16.3711 18.0696 16.5594 18.0247 16.7315 17.9341Z" fill="#E5ECFF"/>
</svg>
